<?xml version="1.0" encoding="UTF-8"?>
<svg id="_레이어_1" data-name="레이어 1" xmlns="http://www.w3.org/2000/svg" viewBox="0 0 142.39 26.72">
  <defs>
    <style>
      .cls-1 {
        fill: #231815;
      }
    </style>
  </defs>
  <g>
    <path d="m.31,14.76c.57-.45,1.22-.77,1.97-.96s1.54-.31,2.38-.37c.84-.06,1.7-.08,2.58-.06.88.02,1.74.02,2.57,0,.83-.02,1.61-.09,2.35-.21.74-.12,1.38-.36,1.94-.71.06-.91.24-1.85.54-2.84.3-.99.65-1.95,1.07-2.89.42-.94.87-1.82,1.36-2.65.49-.83.97-1.55,1.43-2.17.19-.24.38-.47.59-.68.2-.21.42-.41.66-.59.15-.13.31-.23.48-.3s.36-.1.58-.08c.42.01.65.23.7.64.03.18.03.35,0,.52-.03.17-.06.34-.11.5-.14.49-.31.97-.5,1.43-.2.46-.41.91-.65,1.35-.72,1.31-1.5,2.56-2.35,3.77-.85,1.2-1.78,2.35-2.8,3.45-.19.21-.3.47-.32.77-.03.39-.03.78-.02,1.17.01.39.07.77.17,1.15.04.14.09.27.14.41.06.13.12.27.18.41.38.65.93,1.04,1.66,1.17.4.08.89.07,1.45-.02.57-.09,1.19-.24,1.86-.44.67-.21,1.38-.46,2.13-.76.75-.3,1.49-.63,2.24-.99.74-.36,1.47-.74,2.18-1.13.71-.4,1.37-.79,1.99-1.18.05-.04.09-.07.13-.09.04-.02.09-.05.15-.08.03.03.06.04.09.04-.03.04-.07.08-.13.11-.06.04-.13.09-.19.15-.94.57-1.94,1.13-2.99,1.7s-2.09,1.08-3.11,1.53c-1.03.45-2.01.81-2.95,1.09-.94.27-1.78.39-2.51.35-1.71-.11-2.72-1.01-3.02-2.7-.06-.29-.1-.6-.12-.93-.02-.33-.02-.65,0-.98-.52.31-1.15.53-1.89.65-.74.12-1.54.2-2.4.23-.86.03-1.73.04-2.63.04-.9,0-1.76.02-2.59.08-.82.06-1.58.19-2.27.38-.69.19-1.25.49-1.68.91-.04.04-.08.06-.14.06s-.11,0-.15-.03c-.04-.02-.07-.05-.08-.08s0-.08.06-.11Zm14.48-2.95c.98-1.09,1.85-2.23,2.61-3.41.76-1.18,1.44-2.31,2.05-3.39.25-.45.48-.91.68-1.37.2-.46.38-.93.53-1.43.06-.19.11-.38.15-.58.04-.19.05-.39.04-.59,0-.09,0-.18-.02-.26-.01-.09-.06-.15-.13-.19-.09-.04-.16-.03-.23.03s-.13.11-.19.16c-.25.2-.48.42-.69.66-.21.24-.41.48-.59.74-.7.93-1.31,1.9-1.82,2.92-.51,1.01-.96,2.06-1.35,3.14-.18.52-.37,1.1-.58,1.75-.21.65-.36,1.26-.46,1.82Z"/>
    <path class="cls-1" d="m17.49,17.5c-.1,0-.19,0-.28,0-1.83-.12-2.93-1.1-3.25-2.9-.06-.29-.11-.61-.13-.95-.01-.19-.01-.38-.01-.57-.46.22-.99.38-1.58.47-.75.12-1.57.2-2.43.23-.86.03-1.75.04-2.64.04-.89,0-1.75.02-2.57.08-.81.06-1.56.19-2.23.37-.65.18-1.18.46-1.57.84-.14.14-.39.15-.56.08-.11-.05-.19-.13-.22-.23-.02-.05-.06-.24.14-.39.59-.47,1.29-.81,2.06-1.01.76-.19,1.57-.32,2.42-.37.84-.06,1.71-.08,2.6-.06.87.02,1.73.02,2.56,0,.82-.02,1.6-.09,2.32-.2.65-.11,1.24-.31,1.74-.61.07-.88.25-1.81.54-2.77.3-.99.66-1.97,1.08-2.92.42-.94.88-1.84,1.37-2.68.49-.83.98-1.57,1.45-2.19.2-.25.4-.48.6-.7.21-.22.44-.43.69-.61.16-.13.34-.24.53-.33.21-.09.45-.13.7-.1.52.01.85.32.92.86.03.19.03.39,0,.59-.03.18-.07.36-.12.54-.14.49-.31.98-.51,1.45-.2.47-.42.93-.66,1.37-.72,1.31-1.52,2.59-2.37,3.79-.85,1.2-1.8,2.37-2.82,3.47-.15.17-.23.38-.26.63-.02.37-.03.76-.02,1.14.01.37.07.74.16,1.1.03.12.08.25.13.37.06.13.11.26.18.4.33.57.82.92,1.48,1.03.38.07.84.06,1.37-.02.55-.09,1.17-.23,1.82-.44.66-.2,1.37-.46,2.11-.76.74-.3,1.49-.63,2.22-.98.74-.36,1.46-.73,2.17-1.13.71-.39,1.37-.79,1.98-1.17.04-.03.08-.06.13-.09.05-.04.12-.07.2-.1.08-.03.16-.02.23.02.07.01.14.06.18.13.04.08.04.18-.01.25-.05.07-.11.13-.21.19-.05.03-.09.07-.14.11-.01.01-.03.03-.05.04-.94.56-1.95,1.14-3,1.7-1.05.57-2.11,1.08-3.13,1.54-1.03.46-2.04.82-2.99,1.1-.85.24-1.62.37-2.31.37Zm-3.17-4.95s.02.07.02.11c-.02.31-.03.63,0,.95.02.32.06.61.12.89.1.57.28,1.03.55,1.41-.07-.15-.12-.27-.18-.4-.06-.14-.11-.29-.15-.44-.11-.39-.17-.8-.18-1.21-.01-.4,0-.8.02-1.19.02-.23.08-.44.18-.63,0,0,0,0,0,0-.1-.05-.15-.16-.13-.27.1-.57.26-1.2.47-1.85.21-.65.4-1.24.58-1.75.39-1.09.85-2.16,1.36-3.17.51-1.02,1.14-2.02,1.85-2.95.19-.26.4-.51.61-.75.09-.1.18-.2.28-.3-.16.13-.3.26-.43.41-.2.21-.39.43-.57.66-.46.6-.93,1.33-1.42,2.14-.48.82-.94,1.7-1.35,2.63-.41.92-.76,1.89-1.06,2.86-.29.97-.47,1.9-.53,2.79,0,.03,0,.05-.02.08ZM.31,14.76l.15.2h0s-.15-.2-.15-.2Zm0,0h0,0Zm.15,0s0,0,0,0c0,0,0,0,0,0ZM20.59.85c-.05.04-.1.09-.15.13-.24.19-.46.4-.66.63-.2.23-.4.48-.58.72-.69.92-1.3,1.88-1.8,2.88-.5,1-.95,2.05-1.34,3.12-.17.51-.37,1.09-.57,1.74-.09.29-.18.57-.25.85.72-.86,1.37-1.74,1.96-2.64.76-1.17,1.44-2.3,2.04-3.37.25-.45.47-.9.67-1.35.2-.45.37-.92.52-1.4.06-.18.11-.37.14-.55.03-.17.04-.35.03-.53,0-.08,0-.15-.01-.21Zm.41-.31c.04.06.07.13.08.21.01.1.02.2.02.3.01.21,0,.43-.04.64-.04.2-.09.41-.16.61-.15.49-.33.98-.54,1.45-.2.46-.43.93-.69,1.39-.27.48-.55.96-.85,1.46.41-.66.81-1.33,1.19-2.02.23-.43.45-.88.64-1.33.19-.45.35-.92.49-1.4.05-.16.08-.31.11-.47.02-.15.02-.3,0-.45-.03-.21-.1-.34-.25-.39Z"/>
  </g>
  <g>
    <path d="m35.52,14.45c.81-.21,1.61-.48,2.42-.81.81-.33,1.58-.72,2.32-1.19.05-.04.09-.07.13-.09.04-.02.09-.05.15-.08.03.03.06.04.09.04-.03.04-.07.08-.13.11-.06.04-.13.09-.19.15-.74.49-1.52.9-2.32,1.22-.81.32-1.62.59-2.44.82-.49.14-1.03.26-1.6.37-.58.11-1.14.19-1.69.25-.55.06-1.06.08-1.53.08-.47,0-.86-.06-1.16-.16-.39-.13-.65-.36-.77-.72-.13-.35-.17-.74-.13-1.15.04-.42.14-.82.31-1.22s.35-.7.54-.92c.28-.34.64-.44,1.08-.3.28.08.38.24.3.49-.1.47-.31.86-.62,1.17-.18.18-.38.25-.6.23-.14-.01-.23.05-.26.19-.04.13-.07.29-.09.48-.03.2-.03.39-.03.59,0,.2.04.38.09.55.06.17.15.29.27.37.2.13.53.2.99.21.46.01.97,0,1.54-.07s1.15-.14,1.75-.25c.6-.11,1.13-.22,1.6-.35Zm-5.85-2.06c.14-.1.23-.21.27-.33.04-.12.07-.25.08-.39-.1.1-.18.2-.25.3-.06.1-.1.24-.11.42Z"/>
    <path class="cls-1" d="m30.87,15.56s-.09,0-.14,0c-.5,0-.91-.07-1.24-.17-.46-.15-.78-.44-.93-.87-.14-.38-.19-.81-.15-1.26.04-.44.15-.87.33-1.29.18-.42.37-.75.58-.98.33-.41.8-.54,1.34-.37.2.05.35.16.43.31.08.14.09.31.03.49-.11.49-.34.93-.69,1.27-.23.23-.5.33-.8.3,0,0,0,0,0,0-.04.12-.06.27-.09.45-.02.18-.03.36-.03.55,0,.17.03.33.08.48.04.11.09.19.17.23.12.07.36.16.87.17.44.01.95,0,1.51-.07.56-.06,1.14-.14,1.73-.24.59-.1,1.12-.22,1.57-.34,0,0,0,0,0,0,.79-.21,1.6-.48,2.39-.8.79-.32,1.56-.71,2.28-1.17.04-.03.08-.06.13-.09.05-.04.12-.07.2-.1.08-.03.16-.02.23.02.07.01.14.06.18.13.04.08.04.18-.01.25-.05.07-.11.13-.21.19-.05.03-.09.07-.14.11-.01.01-.02.02-.04.03-.75.5-1.55.92-2.37,1.24-.81.32-1.64.6-2.46.83-.49.14-1.04.27-1.63.37-.58.11-1.16.19-1.71.25-.5.05-.98.08-1.42.08Zm-.64-4.53c-.21,0-.37.09-.52.27-.18.2-.34.49-.5.86-.16.37-.26.75-.29,1.14-.03.38,0,.73.12,1.05.02.06.05.12.08.17-.05-.16-.07-.34-.08-.52,0-.21,0-.42.03-.62.03-.21.06-.38.1-.52.05-.17.15-.28.29-.33-.02-.04-.04-.09-.03-.14.02-.22.06-.39.15-.53.07-.12.17-.23.28-.35.07-.07.19-.09.28-.05.09.04.15.14.14.25-.01.16-.05.31-.1.45-.03.08-.08.16-.14.24.02-.02.04-.04.06-.06.28-.28.47-.63.56-1.05.02-.08.02-.11.01-.13-.01-.02-.05-.05-.14-.07-.11-.03-.21-.05-.3-.05Z"/>
  </g>
  <g>
    <path d="m40.35,14.76c.57-.45,1.22-.77,1.97-.96s1.54-.31,2.38-.37c.84-.06,1.7-.08,2.59-.06.89.02,1.75.02,2.58,0,.83-.02,1.62-.09,2.36-.21.74-.12,1.38-.36,1.93-.71l.13-.32.09-.19c.09-.1.2-.13.34-.08.08.03.12.06.13.11.01.05,0,.1-.02.15l-.13.57c-.03.08-.05.15-.08.23-.03.08-.03.16,0,.26.11-.04.21-.09.29-.16.08-.07.17-.14.27-.2.06-.03.12-.06.18-.1.06-.04.12-.08.18-.1.44-.21.72-.08.85.42l.06.15c.09,0,.16-.03.22-.08.06-.05.12-.09.18-.13l3.42-2.44c.35-.25.7-.49,1.06-.72.35-.23.71-.45,1.08-.68.1-.06.19-.11.28-.14.09-.03.19-.03.3,0,.2.03.26.13.19.32-.04.1-.1.22-.19.36l-.96,1.38c-.35.53-.67,1.08-.94,1.64-.28.57-.5,1.16-.68,1.77-.08.25-.13.5-.17.76-.04.25-.03.51.02.77.16.73.62,1.11,1.36,1.15.39.03.91,0,1.57-.09.65-.09,1.38-.22,2.19-.41.81-.18,1.66-.41,2.57-.69.91-.28,1.81-.59,2.71-.94s1.78-.75,2.63-1.18c.86-.43,1.64-.9,2.34-1.39.05-.04.09-.07.13-.09.04-.02.09-.05.15-.08.03.03.06.04.09.04-.03.04-.07.08-.13.11-.06.04-.13.09-.19.15-.54.39-1.2.79-1.98,1.2-.78.41-1.62.8-2.52,1.18-.9.38-1.83.73-2.79,1.05s-1.89.59-2.78.82c-.89.23-1.73.39-2.5.48-.77.09-1.42.1-1.94.03-.98-.15-1.52-.72-1.6-1.7-.04-.4,0-.84.13-1.3.16-.68.4-1.32.71-1.93.31-.6.66-1.19,1.07-1.76l.77-1.04c-.1.01-.18.04-.25.08-.06.04-.13.08-.19.11-.79.49-1.56,1.01-2.31,1.56-.75.55-1.49,1.11-2.24,1.69l-.42.34c-.11.08-.24.13-.38.17-.3.08-.5-.04-.59-.36l-.06-.26c-.06-.03-.12-.02-.16.02-.04.04-.08.07-.12.09-.14.11-.28.23-.42.34-.14.11-.29.22-.42.32-.06.06-.13.11-.2.15-.07.04-.15.06-.24.08-.39.08-.53-.08-.42-.45.04-.14.08-.28.12-.42.04-.14.09-.28.14-.42-.52.31-1.15.53-1.89.65-.74.12-1.54.19-2.4.22-.86.03-1.73.04-2.62.04s-1.75.03-2.58.09c-.82.06-1.58.19-2.26.37-.68.18-1.23.48-1.66.9-.04.04-.08.06-.14.06s-.11,0-.15-.03c-.04-.02-.07-.05-.08-.08-.01-.04,0-.08.06-.11Z"/>
    <path class="cls-1" d="m61.9,17.64c-.29,0-.56-.02-.8-.05-1.09-.17-1.72-.83-1.82-1.92-.04-.43,0-.9.14-1.39.17-.69.41-1.35.73-1.97.31-.61.68-1.21,1.09-1.79l.1-.14c-.59.38-1.17.78-1.73,1.19-.74.54-1.49,1.11-2.23,1.69l-.41.34c-.15.1-.31.17-.47.22-.43.11-.76-.09-.88-.52-.11.09-.24.2-.38.3-.14.11-.28.22-.42.32-.08.07-.16.13-.24.18-.1.05-.2.09-.32.1-.27.05-.48,0-.62-.14-.13-.14-.15-.36-.07-.63.02-.09.05-.17.08-.26-.42.18-.9.32-1.42.4-.75.12-1.57.19-2.43.22-.85.03-1.73.04-2.63.04s-1.74.03-2.56.09c-.81.06-1.55.18-2.21.36-.64.17-1.16.45-1.55.84-.14.14-.38.15-.56.08-.11-.05-.19-.13-.22-.23-.02-.06-.06-.24.14-.39.59-.47,1.29-.81,2.06-1.01.76-.19,1.57-.32,2.42-.37.84-.06,1.72-.08,2.61-.06.88.02,1.74.02,2.57,0,.82-.02,1.6-.09,2.33-.2.68-.11,1.27-.32,1.77-.63l.1-.25.1-.21s.02-.04.03-.05c.15-.18.38-.23.61-.15.19.07.26.19.29.29.02.1.02.2-.02.29l-.11.46s.05-.04.08-.05c.01,0,.03-.01.04-.02.04-.02.08-.04.12-.07.07-.06.15-.1.24-.14.27-.13.52-.15.73-.05.19.09.33.26.41.51.04-.03.08-.06.12-.08l3.4-2.42c.35-.25.71-.5,1.07-.72.35-.23.71-.45,1.08-.68.11-.07.23-.13.33-.16.13-.05.28-.05.44-.02.16.02.29.09.36.22.07.12.07.27,0,.44-.04.11-.11.24-.21.4l-.97,1.39c-.34.51-.65,1.06-.92,1.61-.27.55-.49,1.13-.66,1.73-.07.24-.13.49-.16.72-.03.22-.03.46.02.69.14.61.5.92,1.13.95.37.02.89,0,1.52-.09.64-.09,1.37-.22,2.17-.4.8-.18,1.65-.41,2.55-.68.89-.27,1.8-.59,2.69-.94.89-.35,1.77-.74,2.61-1.17.84-.43,1.62-.89,2.31-1.37.05-.04.09-.07.14-.1.05-.04.12-.07.2-.1.08-.03.16-.02.23.02.07.01.14.06.18.13.04.08.04.18-.01.25-.05.07-.11.13-.21.19-.05.03-.09.07-.14.11,0,0-.02.02-.03.03-.55.4-1.22.8-2.01,1.22-.78.41-1.64.81-2.54,1.19-.9.38-1.85.73-2.81,1.05s-1.91.6-2.8.83c-.9.23-1.75.39-2.53.49-.44.05-.84.08-1.2.08Zm.48-8.2s.03.03.04.06c.05.09.04.19-.02.27l-.77,1.04c-.39.55-.74,1.13-1.04,1.72-.3.58-.53,1.21-.69,1.87-.12.44-.16.85-.13,1.22.04.49.2.85.48,1.1-.12-.18-.21-.4-.27-.66-.06-.3-.06-.59-.02-.86.04-.26.1-.53.18-.79.18-.63.41-1.24.69-1.81.28-.57.6-1.14.96-1.67l.97-1.38c.07-.11.13-.21.16-.3-.08-.02-.13-.01-.17,0-.07.03-.15.07-.23.12-.04.03-.09.05-.13.08Zm-22.03,5.32l.15.2s0,0,0,0l-.15-.2Zm0,0h0,0Zm.15,0s0,0,0,0c0,0,0,0,0,0Zm13.52-1.04s.07,0,.16-.01c.07-.01.12-.03.17-.05.05-.03.1-.06.14-.11,0,0,.02-.02.03-.03.04-.03.08-.05.11-.08-.05,0-.1,0-.14-.03-.06-.03-.1-.09-.12-.16-.04-.15-.03-.29.02-.42.03-.07.06-.14.08-.21l.12-.53s0,0,0,0l-.08.15-.12.3s-.03.06-.06.09c0,.04,0,.08-.01.11-.05.14-.1.27-.14.41-.04.14-.08.27-.12.41-.03.08-.03.13-.03.16Zm1.99-.89s.02.05.03.07l.06.26c.03.12.08.18.15.19-.02-.02-.03-.04-.04-.07l-.06-.15s0-.02,0-.03c-.03-.13-.08-.23-.13-.28Zm19.97-.75h0,0Z"/>
  </g>
  <g>
    <path d="m78.75,15.85c-.31-.09-.57-.28-.76-.59-.2-.3-.26-.67-.2-1.09l.13-.6c-.06-.02-.11-.02-.14.02-.03.04-.06.07-.08.09l-.79.74c-.06.05-.12.1-.18.14-.06.04-.12.08-.18.12-.33.2-.61.24-.85.11-.24-.13-.36-.37-.38-.74-.01-.44.06-.85.21-1.24.15-.38.36-.75.64-1.09.09-.1.22-.16.4-.19.28,0,.35.13.21.38-.14.26-.27.54-.39.81-.12.28-.22.56-.29.85-.03.1-.04.2-.06.29s-.01.19,0,.29v.16c0,.06.03.1.09.12.05.03.09.02.13,0,.04-.03.08-.06.11-.08l.32-.25c.21-.18.42-.36.63-.54.21-.18.41-.37.61-.56.1-.1.2-.2.29-.3.09-.1.18-.22.26-.36.04-.06.08-.12.13-.18.05-.06.12-.09.21-.1h.23c.08,0,.14.03.19.09.05.06.06.12.02.17-.04.05-.07.11-.09.17-.13.29-.24.58-.35.86-.11.28-.19.58-.25.88-.04.14-.06.28-.06.42-.03.64.31,1.01,1.02,1.11.42.06,1,.02,1.76-.12.76-.14,1.58-.37,2.48-.67.9-.3,1.83-.67,2.78-1.1.96-.43,1.84-.91,2.66-1.43.05-.04.09-.07.13-.09.04-.02.09-.05.15-.08.03.03.06.04.09.04-.03.04-.07.08-.13.11s-.13.09-.19.15c-.76.5-1.58.96-2.46,1.38-.89.42-1.76.77-2.61,1.08-.85.3-1.63.54-2.35.71-.72.17-1.28.25-1.68.25-.21,0-.44,0-.69-.03-.25-.02-.49-.06-.73-.12Z"/>
    <path class="cls-1" d="m80.16,16.25c-.22,0-.46,0-.71-.03-.26-.02-.52-.06-.77-.13h0c-.37-.11-.68-.34-.91-.69-.22-.35-.3-.76-.24-1.24l-.47.44c-.08.06-.14.11-.2.16-.06.05-.13.1-.2.14-.4.25-.77.29-1.09.12-.22-.12-.49-.38-.51-.95-.01-.47.06-.92.22-1.34.16-.41.39-.79.68-1.15.13-.15.32-.24.55-.28.01,0,.02,0,.04,0,.23,0,.39.07.47.21.08.14.07.32-.05.53-.13.25-.26.52-.38.79-.11.26-.21.54-.28.81-.02.09-.04.18-.05.26,0,.07,0,.14,0,.21l.27-.2c.21-.17.41-.35.62-.53.21-.18.41-.36.61-.55.09-.09.19-.19.28-.29.08-.09.15-.19.22-.31.05-.09.1-.16.16-.23.09-.1.21-.16.36-.18.01,0,.02,0,.04,0h.23c.15,0,.28.06.38.19.14.18.11.36.02.47-.02.03-.05.07-.06.11-.13.3-.24.58-.35.85-.1.27-.18.55-.24.84-.04.13-.05.25-.05.36-.02.52.23.79.81.87.39.06.95.02,1.67-.12.74-.14,1.57-.36,2.45-.66.89-.3,1.82-.67,2.76-1.1.94-.43,1.83-.9,2.63-1.41.04-.03.09-.06.13-.09.05-.04.12-.07.2-.1.08-.03.16-.02.23.02.07.01.14.06.18.13.04.08.04.18-.01.25-.05.07-.12.13-.21.19-.05.03-.09.07-.14.11-.01.01-.02.02-.04.03-.76.51-1.6.98-2.5,1.4-.89.42-1.77.78-2.63,1.09-.85.3-1.65.54-2.38.72-.74.18-1.31.26-1.74.26Zm-2.19-2.93s.02,0,.04.01c.11.04.18.16.15.28l-.13.6c-.05.35,0,.66.16.91.07.11.15.2.23.27-.12-.21-.18-.46-.17-.75,0-.15.02-.31.07-.47.06-.3.15-.61.26-.9.11-.28.22-.57.35-.87.01-.03.02-.06.04-.09h-.13s-.04.01-.04.02c-.04.04-.07.09-.1.14-.08.15-.18.29-.29.4-.1.1-.2.2-.3.31-.05.04-.09.09-.14.13Zm-1.42-1.53c-.09.02-.16.05-.21.1-.25.31-.46.65-.6,1.01-.14.35-.2.73-.19,1.14.01.4.19.49.25.52.02.01.05.03.1.04-.08-.07-.13-.17-.13-.28v-.15c-.01-.12-.01-.23,0-.34.01-.1.03-.21.06-.32.08-.3.18-.6.31-.89.12-.28.26-.56.39-.83,0,0,0,0,0-.01Zm-.45,2.46s0,0,0,0c0,0,0,0,0,0Zm1.87-.51h0s0,0,0,0Zm1.09-1.55s0,0,0,0c0,0,0,0,0,0Z"/>
  </g>
  <g>
    <path d="m92.81,15.36c-.16.09-.28.19-.36.29-.08.11-.13.25-.15.42-.14.98-.35,1.94-.64,2.89-.29.94-.64,1.87-1.04,2.78-.28.6-.6,1.18-.96,1.74-.36.55-.79,1.07-1.26,1.55-.21.21-.44.41-.67.59-.23.18-.49.35-.76.5-.63.33-1.26.43-1.91.3-.89-.19-1.35-.74-1.38-1.66-.01-.25,0-.5.06-.75.05-.25.13-.49.23-.73.15-.4.33-.79.55-1.16.21-.37.45-.73.7-1.07.57-.74,1.18-1.42,1.85-2.04.67-.62,1.37-1.21,2.11-1.77.72-.55,1.46-1.04,2.23-1.47.19-.11.29-.26.3-.45.06-.44.12-.89.18-1.34.06-.45.09-.91.1-1.36.01-.2.03-.41.04-.61s.03-.44.06-.69c-.11.08-.2.15-.25.23-.06.08-.12.14-.18.21-.2.29-.4.57-.6.84-.2.27-.4.54-.6.82-.08.1-.15.2-.23.28-.08.09-.16.16-.26.23-.19.14-.36.17-.51.09-.15-.08-.24-.23-.26-.47-.01-.45.08-.91.26-1.36.1-.23.22-.44.37-.64.14-.2.3-.4.46-.59.04-.03.07-.06.1-.09.03-.04.07-.07.12-.09.18-.1.33-.12.45-.06.13.06.2.2.23.42,0,.1,0,.2-.02.28-.01.09-.03.18-.06.28-.03.06-.05.13-.07.19-.02.06-.02.14,0,.23.1-.06.18-.14.24-.22.06-.08.12-.16.18-.24.14-.14.27-.28.4-.42.13-.14.25-.29.38-.44.09-.09.18-.13.28-.11.06.03.1.06.12.11.02.05.03.1.03.15.01.1.02.2.03.29,0,.09,0,.19,0,.29,0,.57,0,1.13-.03,1.68-.02.55-.08,1.11-.18,1.68,0,.04,0,.08,0,.12,0,.04,0,.08.03.12.06.01.12,0,.17-.03.05-.03.11-.06.17-.08,1.08-.43,2.15-.75,3.21-.96,1.06-.21,2.07-.39,3.05-.53.98-.14,1.89-.28,2.76-.42.86-.14,1.64-.36,2.33-.65.06-.03.11-.05.14-.08.03-.03.08-.06.14-.08.03.03.06.04.09.04-.03.04-.07.08-.13.11-.06.04-.13.09-.19.15-.73.31-1.51.54-2.35.68-.84.14-1.73.28-2.67.42-.94.14-1.95.33-3.01.57-1.06.23-2.19.6-3.39,1.1Zm-1.26.79c-.09-.01-.16,0-.21.05-.05.04-.11.08-.17.1-.37.23-.72.47-1.07.72-.35.25-.68.5-1.01.76-.65.52-1.28,1.05-1.87,1.61-.59.56-1.13,1.18-1.62,1.86-.26.36-.5.74-.72,1.11-.21.38-.39.78-.53,1.21-.08.25-.13.5-.17.76-.04.25-.03.51.04.77.09.42.29.72.61.93s.68.25,1.09.15c.2-.05.4-.13.6-.25.34-.2.67-.45.98-.74.48-.43.9-.9,1.26-1.41.36-.51.67-1.06.93-1.65.68-1.45,1.21-2.96,1.59-4.53.06-.25.12-.49.16-.73.04-.23.08-.48.1-.73Zm-.68-5.08c-.25.4-.46.8-.63,1.19-.17.39-.29.81-.35,1.25.19-.18.36-.36.52-.56.16-.19.32-.39.48-.59.01-.02.02-.05.03-.07,0-.02,0-.04-.03-.07-.08-.08-.11-.15-.09-.24.01-.08.03-.16.06-.24.03-.1.04-.2.06-.31.01-.11,0-.23-.04-.37Z"/>
    <path class="cls-1" d="m85.58,26.72c-.19,0-.39-.02-.58-.06-1.01-.21-1.55-.87-1.58-1.9-.01-.27,0-.54.06-.8.05-.26.13-.52.24-.77.15-.4.34-.81.56-1.19.22-.38.46-.75.71-1.09.57-.75,1.21-1.45,1.88-2.07.67-.62,1.39-1.22,2.13-1.79.72-.56,1.48-1.06,2.26-1.49.15-.09.17-.18.18-.25.06-.46.12-.9.18-1.35.06-.44.09-.89.1-1.34l.04-.62c-.18.25-.36.5-.54.74-.2.27-.4.54-.6.82-.08.11-.16.21-.24.3-.09.11-.2.2-.32.28-.32.24-.59.19-.75.11-.16-.08-.36-.26-.4-.67-.01-.51.08-1,.28-1.48.11-.25.24-.48.4-.69.15-.21.31-.41.48-.6.01-.02.03-.03.05-.04.02-.01.03-.03.05-.05.05-.06.12-.12.2-.16.3-.17.53-.13.67-.06.2.1.33.31.36.61,0,0,0,.02,0,.03,0,.08,0,.15-.01.22.09-.1.18-.19.26-.28.12-.14.25-.29.37-.44.19-.2.38-.21.5-.2.02,0,.04,0,.06.02.16.07.23.17.26.26.03.07.04.15.04.22.01.1.02.2.03.29,0,.1,0,.21,0,.32,0,.56,0,1.12-.03,1.67-.02.52-.07,1.05-.16,1.57,1.09-.43,2.19-.76,3.25-.98,1.06-.21,2.09-.39,3.06-.53.97-.14,1.89-.28,2.75-.42.84-.14,1.61-.35,2.28-.64.05-.02.06-.03.06-.03.06-.06.13-.1.22-.14.08-.03.16-.02.23.02.07.01.14.06.18.13.04.08.04.18-.01.25-.05.07-.11.13-.21.19-.05.03-.09.07-.14.11-.02.02-.05.04-.08.05-.74.32-1.55.56-2.41.7-.83.14-1.73.28-2.67.43-.94.14-1.94.33-3,.56-1.04.23-2.16.59-3.33,1.09-.12.07-.21.14-.26.21-.05.07-.09.18-.11.32-.14.99-.36,1.98-.65,2.93-.29.95-.64,1.89-1.05,2.8-.28.61-.61,1.21-.98,1.77-.37.56-.81,1.1-1.3,1.59-.22.22-.45.43-.69.61-.24.19-.51.37-.8.52-.49.26-.99.38-1.49.38Zm5.67-10.18c-.34.21-.68.44-1,.68-.34.25-.68.5-1,.75-.64.51-1.27,1.05-1.85,1.6-.58.55-1.11,1.16-1.59,1.82-.26.35-.49.72-.7,1.09-.2.36-.38.75-.51,1.16-.07.23-.12.48-.16.72-.03.22-.02.45.03.68.08.36.24.61.5.77.26.17.56.21.89.12.18-.04.36-.12.54-.22.32-.19.64-.43.94-.7.46-.42.87-.87,1.22-1.37.35-.49.65-1.04.91-1.61.67-1.43,1.2-2.94,1.57-4.49.06-.25.12-.49.16-.72.02-.09.03-.19.05-.29Zm-7.33,8.24c.01.26.06.49.15.68-.04-.1-.07-.2-.09-.31-.03-.12-.05-.24-.06-.37Zm7.7-8.87c.11.04.18.14.17.26-.03.26-.06.51-.11.75-.04.23-.1.48-.16.74-.38,1.58-.92,3.12-1.6,4.58-.27.6-.59,1.17-.96,1.69-.25.35-.53.69-.84,1.01.03-.03.06-.06.09-.09.46-.46.88-.97,1.23-1.51.36-.54.67-1.11.94-1.7.4-.89.74-1.81,1.03-2.74.28-.93.5-1.89.63-2.85.03-.21.1-.39.19-.53.04-.05.08-.1.13-.15-.04-.02-.08-.05-.1-.09-.06-.09-.08-.19-.07-.3,0-.03,0-.06,0-.09,0-.01,0-.03,0-.04.1-.55.16-1.11.18-1.65.02-.55.03-1.11.03-1.67,0-.01,0-.02,0-.03.01-.08.01-.17,0-.25,0-.09-.02-.18-.03-.28,0,0,0-.01,0-.02,0,0,0,0-.01.01-.05.06-.1.12-.15.18.05.05.08.12.07.2-.03.25-.04.47-.06.68l-.04.61c-.01.45-.05.92-.11,1.37-.06.45-.12.9-.18,1.34,0,.15-.08.38-.32.56Zm-7.6,7.94c-.02.07-.03.14-.05.21-.02.11-.04.22-.05.33,0-.04,0-.07.01-.11.02-.14.05-.29.08-.43Zm8.69-8.82s0,0,0,0c0,0,0,0,0,0Zm-2.28-3.9c-.15.18-.3.36-.43.55-.13.19-.25.39-.34.6-.17.41-.25.84-.24,1.25.01.13.06.22.13.26.02.01.09.04.24-.06,0,0,0,0-.01,0-.09-.05-.15-.15-.13-.25.07-.46.19-.9.37-1.31.17-.39.38-.79.63-1.19,0,0-.02.01-.03.02-.03.02-.05.03-.05.04-.04.05-.08.09-.13.12Zm.13,1c-.03.07-.07.14-.1.21-.04.08-.07.17-.1.25l.26-.32s-.05-.1-.06-.14Z"/>
  </g>
  <g>
    <path d="m107.35,15.85c-.31-.09-.57-.28-.76-.59-.2-.3-.26-.67-.2-1.09l.13-.6c-.06-.02-.11-.02-.14.02-.03.04-.06.07-.08.09l-.79.74c-.06.05-.12.1-.18.14-.06.04-.12.08-.18.12-.33.2-.61.24-.85.11-.24-.13-.36-.37-.38-.74-.01-.44.06-.85.21-1.24.15-.38.36-.75.64-1.09.09-.1.22-.16.4-.19.28,0,.35.13.21.38-.14.26-.27.54-.39.81-.12.28-.22.56-.29.85-.03.1-.04.2-.06.29s-.01.19,0,.29v.16c0,.06.03.1.09.12.05.03.09.02.13,0,.04-.03.08-.06.11-.08l.32-.25c.21-.18.42-.36.63-.54.21-.18.41-.37.61-.56.1-.1.2-.2.29-.3.09-.1.18-.22.26-.36.04-.06.08-.12.13-.18.05-.06.12-.09.21-.1h.23c.08,0,.14.03.19.09.05.06.06.12.02.17-.04.05-.07.11-.09.17-.13.29-.24.58-.35.86-.11.28-.19.58-.25.88-.04.14-.06.28-.06.42-.03.64.31,1.01,1.02,1.11.42.06,1,.02,1.76-.12.76-.14,1.58-.37,2.48-.67.9-.3,1.83-.67,2.78-1.1.96-.43,1.84-.91,2.66-1.43.05-.04.09-.07.13-.09.04-.02.09-.05.15-.08.03.03.06.04.09.04-.03.04-.07.08-.13.11s-.13.09-.19.15c-.76.5-1.58.96-2.46,1.38-.89.42-1.76.77-2.61,1.08-.85.3-1.63.54-2.35.71-.72.17-1.28.25-1.68.25-.21,0-.44,0-.69-.03-.25-.02-.49-.06-.73-.12Z"/>
    <path class="cls-1" d="m108.76,16.25c-.22,0-.46,0-.71-.03-.26-.02-.52-.06-.77-.13h0c-.37-.11-.68-.34-.91-.69-.22-.35-.3-.76-.24-1.24l-.47.44c-.08.06-.14.11-.2.16-.06.05-.13.1-.2.14-.4.25-.77.29-1.09.12-.22-.12-.49-.38-.51-.95-.01-.47.06-.92.22-1.34.16-.41.39-.79.68-1.15.13-.15.32-.24.55-.28.01,0,.02,0,.04,0,.23,0,.39.07.47.21.08.14.07.32-.05.53-.13.25-.26.52-.38.79-.11.26-.21.54-.28.81-.02.09-.04.18-.05.26,0,.07,0,.14,0,.21l.27-.2c.21-.17.41-.35.62-.53.21-.18.41-.36.61-.55.09-.09.19-.19.28-.29.08-.09.15-.19.22-.31.05-.09.1-.16.16-.23.09-.1.21-.16.36-.18.01,0,.02,0,.04,0h.23c.15,0,.28.06.38.19.14.18.11.36.02.47-.02.03-.05.07-.06.11-.13.3-.24.58-.35.85-.1.27-.18.55-.24.84-.04.13-.05.25-.05.36-.02.52.23.79.81.87.39.06.95.02,1.67-.12.74-.14,1.57-.36,2.45-.66.89-.3,1.82-.67,2.76-1.1.94-.43,1.83-.9,2.63-1.41.04-.03.09-.06.13-.09.05-.04.12-.07.2-.1.08-.03.16-.02.23.02.07.01.14.06.18.13.04.08.04.18-.01.25-.05.07-.12.13-.21.19-.05.03-.09.07-.14.11-.01.01-.02.02-.04.03-.76.51-1.6.98-2.5,1.4-.89.42-1.77.78-2.63,1.09-.85.3-1.65.54-2.38.72-.74.18-1.31.26-1.74.26Zm-2.19-2.93s.02,0,.04.01c.11.04.18.16.15.28l-.13.6c-.05.35,0,.66.16.91.07.11.15.2.23.27-.12-.21-.18-.46-.17-.75,0-.15.02-.31.07-.47.06-.3.15-.61.26-.9.11-.28.22-.57.35-.87.01-.03.02-.06.04-.09h-.13s-.04.01-.04.02c-.04.04-.07.09-.1.14-.08.15-.18.29-.29.4-.1.1-.2.2-.3.31-.05.04-.09.09-.14.13Zm-1.42-1.53c-.09.02-.16.05-.21.1-.25.31-.46.65-.6,1.01-.14.35-.2.73-.19,1.14.01.4.19.49.25.52.02.01.05.03.1.04-.08-.07-.13-.17-.13-.28v-.15c-.01-.12-.01-.23,0-.34.01-.1.03-.21.06-.32.08-.3.18-.6.31-.89.12-.28.26-.56.39-.83,0,0,0,0,0-.01Zm-.45,2.46s0,0,0,0c0,0,0,0,0,0Zm1.87-.51h0s0,0,0,0Zm1.09-1.55s0,0,0,0c0,0,0,0,0,0Z"/>
  </g>
  <g>
    <path d="m124.6,14.45c.81-.21,1.61-.48,2.42-.81.81-.33,1.58-.72,2.32-1.19.05-.04.09-.07.13-.09.04-.02.09-.05.15-.08.03.03.06.04.09.04-.03.04-.07.08-.13.11s-.13.09-.19.15c-.74.49-1.52.9-2.32,1.22-.81.32-1.62.59-2.44.82-.49.14-1.03.26-1.6.37-.58.11-1.14.19-1.69.25-.55.06-1.06.08-1.53.08-.47,0-.86-.06-1.16-.16-.39-.13-.65-.36-.77-.72-.13-.35-.17-.74-.13-1.15.04-.42.14-.82.31-1.22.17-.4.35-.7.54-.92.28-.34.64-.44,1.08-.3.28.08.38.24.3.49-.1.47-.31.86-.62,1.17-.18.18-.38.25-.6.23-.14-.01-.23.05-.26.19-.04.13-.07.29-.09.48-.03.2-.03.39-.03.59,0,.2.04.38.09.55.06.17.15.29.27.37.2.13.53.2.99.21.46.01.97,0,1.54-.07s1.15-.14,1.75-.25c.6-.11,1.13-.22,1.6-.35Zm-5.85-2.06c.14-.1.23-.21.27-.33.04-.12.07-.25.08-.39-.1.1-.18.2-.25.3-.06.1-.1.24-.11.42Z"/>
    <path class="cls-1" d="m119.95,15.56s-.09,0-.14,0c-.5,0-.91-.07-1.24-.17-.46-.15-.78-.44-.93-.87-.14-.39-.19-.81-.15-1.26.04-.44.15-.87.33-1.29.18-.42.37-.75.58-.98.33-.41.8-.54,1.34-.37.2.05.35.16.43.31.08.14.09.31.03.49-.11.49-.34.93-.68,1.27-.23.23-.5.33-.8.3,0,0,0,0,0,0-.04.12-.06.27-.09.45-.02.18-.03.36-.03.55,0,.17.03.33.08.48.04.11.09.19.17.23.12.07.36.16.87.17.44.01.95,0,1.51-.07.56-.06,1.14-.14,1.73-.24.59-.1,1.12-.22,1.57-.34,0,0,0,0,0,0,.79-.21,1.6-.48,2.39-.8.79-.32,1.56-.71,2.28-1.17.04-.03.08-.06.13-.09.05-.04.12-.07.2-.1.08-.03.16-.02.23.02.07.01.14.06.18.13.04.08.04.18-.01.25-.05.07-.12.13-.21.19-.05.03-.09.07-.14.11-.01.01-.02.02-.04.03-.75.5-1.55.92-2.37,1.24-.81.32-1.64.6-2.46.83-.49.14-1.04.27-1.63.37-.58.11-1.16.19-1.71.25-.5.05-.98.08-1.42.08Zm-.64-4.53c-.21,0-.37.09-.52.27-.18.2-.34.49-.5.86-.16.37-.26.75-.29,1.14-.03.38,0,.73.12,1.05.02.06.05.12.08.17-.05-.16-.07-.34-.08-.52,0-.21,0-.42.03-.63.03-.21.06-.38.1-.52.05-.17.15-.28.29-.33-.02-.04-.04-.09-.03-.14.02-.22.06-.39.15-.53.07-.12.17-.23.28-.35.07-.07.19-.09.28-.05.09.04.15.14.14.25-.01.16-.05.31-.1.45-.03.08-.08.16-.14.24.02-.02.04-.04.06-.06.28-.28.47-.63.56-1.05.02-.08.02-.11.01-.13-.01-.02-.05-.05-.14-.07-.11-.03-.21-.05-.3-.05Z"/>
  </g>
  <g>
    <path d="m141.76,12.45c.05-.04.09-.07.13-.09.04-.02.09-.05.15-.08.03.03.06.04.09.04-.03.04-.07.08-.13.11s-.13.09-.19.15c-.5.28-1.11.66-1.83,1.14-.72.48-1.48.99-2.29,1.52s-1.64,1.03-2.48,1.51c-.84.48-1.65.85-2.41,1.1-.76.26-1.45.36-2.07.32-.62-.04-1.1-.33-1.45-.86-.23-.34-.36-.76-.41-1.26-.04-.5-.02-1.03.07-1.6.09-.57.23-1.17.42-1.78.19-.62.41-1.22.65-1.82.24-.6.49-1.17.75-1.71.26-.54.49-1.03.71-1.45.01-.04.03-.06.05-.08.02-.01.02-.05,0-.11-.13-.02-.23-.04-.31-.06-.08-.01-.2-.03-.37-.04-.16-.01-.39-.03-.68-.04-.29-.01-.7-.03-1.25-.06-.06,0-.12-.01-.17-.04-.05-.03-.05-.09,0-.19.03-.06.07-.09.13-.08.06,0,.13,0,.19,0,.23,0,.47,0,.72.02.25.01.5.03.75.04.25.01.47.03.68.05.21.02.39.04.54.07.03-.02.08-.11.15-.25.08-.14.16-.31.25-.5.09-.19.18-.38.26-.58.09-.19.16-.35.23-.46.03-.05.06-.1.09-.15.04-.05.09-.08.17-.09.06-.03.11-.03.13-.03.03,0,.07.03.13.08.08.06.1.13.08.19-.02.06-.04.13-.07.19-.06.23-.14.45-.22.67-.08.22-.17.44-.27.65-.06.11-.11.23-.15.34,0-.01.08-.01.25,0,.16.01.36.03.6.07.24.03.51.07.8.1.3.04.58.08.86.11.28.04.53.07.76.1.23.03.4.05.51.07l.3.06c-.14.03-.28.03-.43,0-.15-.02-.3-.02-.45,0-.23.01-.49,0-.8-.02-.31-.03-.62-.05-.94-.08-.32-.03-.63-.04-.92-.06-.3-.01-.54-.01-.73,0-.11.23-.29.59-.53,1.08-.24.49-.49,1.05-.76,1.69-.27.64-.54,1.31-.79,2.01-.26.7-.46,1.39-.59,2.05-.14.66-.19,1.26-.16,1.8.03.54.2.96.5,1.26.3.3.74.42,1.31.37.57-.06,1.22-.23,1.94-.52.72-.29,1.49-.66,2.29-1.11.81-.45,1.59-.92,2.36-1.39s1.49-.93,2.16-1.36c.67-.43,1.24-.78,1.71-1.03Z"/>
    <path class="cls-1" d="m131.01,18.44c-.1,0-.19,0-.29-.01-.69-.05-1.25-.38-1.64-.97-.25-.37-.4-.83-.45-1.37-.05-.51-.02-1.07.07-1.66.09-.58.24-1.19.43-1.82.2-.62.42-1.24.66-1.84.24-.6.49-1.18.75-1.72.24-.49.45-.94.65-1.34-.01,0-.02,0-.03,0-.08-.01-.19-.02-.35-.04-.16-.01-.39-.02-.67-.04-.29-.01-.71-.03-1.25-.06h0c-.09,0-.18-.02-.27-.06-.03-.01-.29-.16-.11-.52.06-.15.2-.24.38-.22.06,0,.11,0,.16,0,.23,0,.47,0,.73.02l.75.04c.25.01.48.03.69.05.14.01.27.03.39.04.01-.03.03-.06.05-.1.07-.14.15-.31.24-.49.09-.19.18-.38.26-.57.09-.2.17-.36.24-.48.03-.05.07-.12.11-.18.05-.07.14-.15.3-.18.07-.03.17-.05.26-.03.07.02.13.05.23.13.22.18.19.38.17.45-.02.07-.04.13-.07.2-.06.23-.14.46-.22.68-.08.22-.18.45-.28.67.14.01.31.03.51.06.24.03.51.07.8.1.3.04.58.08.86.11l.75.1c.23.03.4.05.51.07l.32.06c.12.02.2.12.2.24s-.09.22-.2.24c-.16.03-.33.03-.51.01-.13-.02-.27-.02-.4,0-.24.01-.52,0-.84-.02l-.94-.08c-.32-.02-.62-.04-.92-.06-.22,0-.4-.01-.56,0-.11.22-.27.54-.46.94-.24.49-.49,1.05-.76,1.68-.27.63-.53,1.3-.79,2-.25.69-.45,1.37-.59,2.01-.13.63-.19,1.22-.16,1.74.03.48.17.85.43,1.1.25.25.61.35,1.11.3.55-.05,1.18-.22,1.88-.5.71-.28,1.47-.65,2.26-1.1.8-.45,1.59-.92,2.35-1.38.76-.47,1.49-.93,2.16-1.36.67-.43,1.24-.78,1.71-1.03.05-.04.09-.07.13-.09.05-.04.12-.07.2-.1.08-.03.16-.02.23.02.07.01.14.06.18.13.04.08.04.18-.01.25-.05.07-.12.13-.21.19-.05.03-.09.07-.14.11-.02.02-.04.03-.06.04-.49.27-1.1.65-1.81,1.13-.71.48-1.49.99-2.3,1.52-.81.53-1.65,1.04-2.5,1.52-.85.48-1.68.86-2.45,1.12-.67.23-1.3.34-1.88.34Zm.69-10.65s0,.01,0,.02c-.21.43-.45.91-.71,1.45-.26.54-.5,1.11-.74,1.69-.24.59-.45,1.2-.65,1.8-.19.6-.33,1.19-.42,1.75-.08.55-.11,1.07-.06,1.55.03.38.13.71.27.99-.09-.23-.15-.5-.16-.79-.03-.56.02-1.19.17-1.87.14-.67.34-1.37.6-2.08.26-.71.53-1.39.8-2.02.27-.63.53-1.21.77-1.7.24-.49.42-.85.53-1.08.04-.08.12-.13.2-.14,0,0,0,0,0,0-.02-.03-.03-.07-.03-.11,0-.03,0-.05.01-.08h0c.04-.13.1-.26.17-.38.09-.19.18-.4.26-.62.08-.21.15-.43.21-.65,0,0,0-.02,0-.03.01-.04.03-.07.04-.11,0,0,0,0,0,0-.01,0-.03,0-.05.01-.04.04-.07.07-.08.11-.06.12-.14.27-.22.45-.09.2-.18.39-.27.58-.09.19-.17.36-.25.51-.11.21-.16.28-.2.32-.04.04-.1.07-.16.07.07.19.01.3-.05.36Zm-.32-.38s0,0,0,0c0,0,0,0,0,0Zm1.38-.1s0,0,0,0c0,0,0,0,0,.01,0,0,0-.01,0-.02Zm.25-1.95h0Z"/>
  </g>
</svg>